# xmcd
#
# Track frame offsets:
#	150
#	20994
#	36609
#	53421
#	72716
#	93342
#	120235
#	142049
#	157845
#	182585
#	197213
#	221089
#
# Disc length: 3168 seconds
#
# Revision: 1
# Processed by: cddbd v1.5.2PL0 Copyright (c) Steve Scherf et al.
# Submitted via: audiograbber 1.83.01
#
DISCID=b10c5e0c
DTITLE=Paria River Band - The Cowboy's Last Ride
DYEAR=1900
DGENRE=
TTITLE0=Wires and Wood
TTITLE1=Hard Miles
TTITLE2=Fools Gold
TTITLE3=Cowboy Town
TTITLE4=The Canyon
TTITLE5=Hold On Annie
TTITLE6=The Cowboy's Last Ride
TTITLE7=I Keep Looking
TTITLE8=Fields
TTITLE9=Home
TTITLE10=Lay It Down
TTITLE11=Every Night And Every Day
EXTD=
EXTT0=
EXTT1=
EXTT2=
EXTT3=
EXTT4=
EXTT5=
EXTT6=
EXTT7=
EXTT8=
EXTT9=
EXTT10=
EXTT11=
PLAYORDER=
